<?xml version="1.0" encoding="UTF-8" standalone="no"?>
<svg width="421px" height="573px" viewBox="0 0 421 573" version="1.1" xmlns="http://www.w3.org/2000/svg" xmlns:xlink="http://www.w3.org/1999/xlink" xmlns:sketch="http://www.bohemiancoding.com/sketch/ns">
    <title>layers 1</title>
    <description>Created with Sketch (http://www.bohemiancoding.com/sketch)</description>
    <defs></defs>
    <g id="Page-1" stroke="none" stroke-width="1" fill="none" fill-rule="evenodd" sketch:type="MSPage">
        <circle id="Oval-1" stroke="#979797" opacity="0.658948864" fill="#D8D8D8" sketch:type="MSShapeGroup" cx="257.5" cy="216.5" r="97.5"></circle>
        <path d="M189.5,429 C243.347766,429 287,385.347766 287,331.5 C287,277.652234 243.347766,234 189.5,234 C135.652234,234 92,277.652234 92,331.5 C92,385.347766 135.652234,429 189.5,429 Z" id="Oval-1" stroke="#979797" opacity="0.658948864" fill="#D8D8D8" sketch:type="MSShapeGroup"></path>
        <path d="M189.5,572 C243.347766,572 287,528.347766 287,474.5 C287,420.652234 243.347766,377 189.5,377 C135.652234,377 92,420.652234 92,474.5 C92,528.347766 135.652234,572 189.5,572 Z" id="Oval-1" stroke="#979797" opacity="0.658948864" fill="#D8D8D8" sketch:type="MSShapeGroup"></path>
        <path d="M306.5,481 C360.347766,481 404,437.347766 404,383.5 C404,329.652234 360.347766,286 306.5,286 C252.652234,286 209,329.652234 209,383.5 C209,437.347766 252.652234,481 306.5,481 Z" id="Oval-1" stroke="#979797" opacity="0.658948864" fill="#D8D8D8" sketch:type="MSShapeGroup"></path>
        <circle id="Oval-1" stroke="#979797" opacity="0.658948864" fill="#D8D8D8" sketch:type="MSShapeGroup" cx="185.5" cy="100.5" r="97.5"></circle>
        <circle id="Oval-1" stroke="#979797" opacity="0.658948864" fill="#D8D8D8" sketch:type="MSShapeGroup" cx="98.5" cy="218.5" r="97.5"></circle>
        <text id="ECMAScript" sketch:type="MSTextLayer" font-family="Arial" font-size="29" font-weight="normal" fill="#000000">
            <tspan x="13" y="227">ECMAScript</tspan>
        </text>
        <text id="WebIDL" sketch:type="MSTextLayer" font-family="Arial" font-size="29" font-weight="normal" fill="#000000">
            <tspan x="205" y="227">WebIDL</tspan>
        </text>
        <text id="C++/rust/etc." sketch:type="MSTextLayer" font-family="Arial" font-size="29" font-weight="normal" fill="#000000">
            <tspan x="104" y="87">C++/rust/etc.</tspan>
        </text>
        <path d="M191,257 L191,502" id="Line" stroke="#FBA617" stroke-width="10" stroke-linecap="square" sketch:type="MSShapeGroup"></path>
        <path id="Line-decoration-1" d="M191,502 C192.05,498.22 192.95,494.98 194,491.2 C191.9,491.2 190.1,491.2 188,491.2 C189.05,494.98 189.95,498.22 191,502 C191,502 191,502 191,502 Z" stroke="#FBA617" stroke-width="10" stroke-linecap="square"></path>
        <path d="M270,239 L302,330" id="Line" stroke="#FBA617" stroke-width="10" stroke-linecap="square" sketch:type="MSShapeGroup"></path>
        <path id="Line-decoration-1" d="M301.846597,329.563761 C301.583179,325.64949 301.357391,322.294402 301.093972,318.380131 C299.11289,319.076776 297.41482,319.6739 295.433738,320.370544 C297.678238,323.58817 299.602096,326.346135 301.846597,329.563761 C301.846597,329.563761 301.846597,329.563761 301.846597,329.563761 Z" stroke="#FBA617" stroke-width="10" stroke-linecap="square"></path>
        <text id="DOM" sketch:type="MSTextLayer" font-family="Arial" font-size="29" font-weight="normal" fill="#000000">
            <tspan x="156" y="343">DOM</tspan>
        </text>
        <text id="DOM" sketch:type="MSTextLayer" font-family="Arial" font-size="29" font-weight="normal" fill="#000000">
            <tspan x="156" y="343">DOM</tspan>
        </text>
        <text id="Other-APIs" sketch:type="MSTextLayer" font-family="Arial" font-size="29" font-weight="normal" fill="#000000">
            <tspan x="277" y="370">Other APIs</tspan>
        </text>
        <text id="HTML5" sketch:type="MSTextLayer" font-family="Arial" font-size="29" font-weight="normal" fill="#000000">
            <tspan x="156" y="490">HTML5</tspan>
        </text>
    </g>
</svg>