<?xml version="1.0" encoding="UTF-8" standalone="no"?>
<svg width="511px" height="511px" viewBox="0 0 511 511" version="1.1" xmlns="http://www.w3.org/2000/svg" xmlns:xlink="http://www.w3.org/1999/xlink" xmlns:sketch="http://www.bohemiancoding.com/sketch/ns">
    <title>WebAPIs@2x</title>
    <description>Created with Sketch (http://www.bohemiancoding.com/sketch)</description>
    <defs></defs>
    <g id="Page-1" stroke="none" stroke-width="1" fill="none" fill-rule="evenodd" sketch:type="MSPage">
        <circle id="Oval-1" stroke="#979797" opacity="0.658948864" fill="#D8D8D8" sketch:type="MSShapeGroup" cx="257.5" cy="154.5" r="97.5"></circle>
        <path d="M189.5,367 C243.347766,367 287,323.347766 287,269.5 C287,215.652234 243.347766,172 189.5,172 C135.652234,172 92,215.652234 92,269.5 C92,323.347766 135.652234,367 189.5,367 Z" id="Oval-1" stroke="#979797" opacity="0.658948864" fill="#D8D8D8" sketch:type="MSShapeGroup"></path>
        <path d="M189.5,510 C243.347766,510 287,466.347766 287,412.5 C287,358.652234 243.347766,315 189.5,315 C135.652234,315 92,358.652234 92,412.5 C92,466.347766 135.652234,510 189.5,510 Z" id="Oval-1" stroke="#979797" opacity="0.658948864" fill="#D8D8D8" sketch:type="MSShapeGroup"></path>
        <path d="M306.5,419 C360.347766,419 404,375.347766 404,321.5 C404,267.652234 360.347766,224 306.5,224 C252.652234,224 209,267.652234 209,321.5 C209,375.347766 252.652234,419 306.5,419 Z" id="Oval-1" stroke="#979797" opacity="0.658948864" fill="#D8D8D8" sketch:type="MSShapeGroup"></path>
        <circle id="Oval-1" stroke="#979797" opacity="0.658948864" fill="#D8D8D8" sketch:type="MSShapeGroup" cx="412.5" cy="98.5" r="97.5"></circle>
        <circle id="Oval-1" stroke="#979797" opacity="0.658948864" fill="#D8D8D8" sketch:type="MSShapeGroup" cx="98.5" cy="156.5" r="97.5"></circle>
        <text id="ECMAScript" sketch:type="MSTextLayer" font-family="Arial" font-size="29" font-weight="normal" fill="#000000">
            <tspan x="13" y="165">ECMAScript</tspan>
        </text>
        <text id="WebIDL" sketch:type="MSTextLayer" font-family="Arial" font-size="29" font-weight="normal" fill="#000000">
            <tspan x="205" y="165">WebIDL</tspan>
        </text>
        <text id="C++" sketch:type="MSTextLayer" font-family="Arial" font-size="29" font-weight="normal" fill="#000000">
            <tspan x="385" y="107">C++</tspan>
        </text>
        <path d="M191,195 L191,440" id="Line" stroke="#FBA617" stroke-width="10" stroke-linecap="square" sketch:type="MSShapeGroup"></path>
        <path id="Line-decoration-1" d="M191,440 C192.05,436.22 192.95,432.98 194,429.2 C191.9,429.2 190.1,429.2 188,429.2 C189.05,432.98 189.95,436.22 191,440 C191,440 191,440 191,440 Z" stroke="#FBA617" stroke-width="10" stroke-linecap="square"></path>
        <path d="M270,177 L302,268" id="Line" stroke="#FBA617" stroke-width="10" stroke-linecap="square" sketch:type="MSShapeGroup"></path>
        <path id="Line-decoration-1" d="M301.846597,267.563761 C301.583179,263.64949 301.357391,260.294402 301.093972,256.380131 C299.11289,257.076776 297.41482,257.6739 295.433738,258.370544 C297.678238,261.58817 299.602096,264.346135 301.846597,267.563761 C301.846597,267.563761 301.846597,267.563761 301.846597,267.563761 Z" stroke="#FBA617" stroke-width="10" stroke-linecap="square"></path>
        <text id="DOM" sketch:type="MSTextLayer" font-family="Arial" font-size="29" font-weight="normal" fill="#000000">
            <tspan x="156" y="281">DOM</tspan>
        </text>
        <text id="DOM" sketch:type="MSTextLayer" font-family="Arial" font-size="29" font-weight="normal" fill="#000000">
            <tspan x="156" y="281">DOM</tspan>
        </text>
        <text id="Other-APIs" sketch:type="MSTextLayer" font-family="Arial" font-size="29" font-weight="normal" fill="#000000">
            <tspan x="277" y="308">Other APIs</tspan>
        </text>
        <text id="HTML5" sketch:type="MSTextLayer" font-family="Arial" font-size="29" font-weight="normal" fill="#000000">
            <tspan x="156" y="428">HTML5</tspan>
        </text>
    </g>
</svg>