<?xml version="1.0" encoding="UTF-8" standalone="no"?>
<svg width="522px" height="199px" viewBox="0 0 522 199" version="1.1" xmlns="http://www.w3.org/2000/svg" xmlns:xlink="http://www.w3.org/1999/xlink" xmlns:sketch="http://www.bohemiancoding.com/sketch/ns">
    <title>Slice 1</title>
    <description>Created with Sketch (http://www.bohemiancoding.com/sketch)</description>
    <defs></defs>
    <g id="Page-1" stroke="none" stroke-width="1" fill="none" fill-rule="evenodd" sketch:type="MSPage">
        <circle id="Oval-1" stroke="#979797" opacity="0.658948864" fill="#D8D8D8" sketch:type="MSShapeGroup" cx="257.5" cy="98.5" r="97.5"></circle>
        <circle id="Oval-1" stroke="#979797" opacity="0.658948864" fill="#D8D8D8" sketch:type="MSShapeGroup" cx="423.5" cy="100.5" r="97.5"></circle>
        <circle id="Oval-1" stroke="#979797" opacity="0.658948864" fill="#D8D8D8" sketch:type="MSShapeGroup" cx="98.5" cy="100.5" r="97.5"></circle>
        <text id="ECMAScript" sketch:type="MSTextLayer" font-family="Arial" font-size="29" font-weight="normal" fill="#000000">
            <tspan x="13" y="109">ECMAScript</tspan>
        </text>
        <text id="WebIDL" sketch:type="MSTextLayer" font-family="Arial" font-size="29" font-weight="normal" fill="#000000">
            <tspan x="205" y="109">WebIDL</tspan>
        </text>
        <text id="C++" sketch:type="MSTextLayer" font-family="Arial" font-size="29" font-weight="normal" fill="#000000">
            <tspan x="396" y="109">C++</tspan>
        </text>
        <path d="M422.5,156 L114.5,156" id="Line" stroke="#FBA617" stroke-width="10" stroke-linecap="square" sketch:type="MSShapeGroup"></path>
        <path id="Line-decoration-1" d="M114.5,156 C118.28,157.05 121.52,157.95 125.3,159 C125.3,156.9 125.3,155.1 125.3,153 C121.52,154.05 118.28,154.95 114.5,156 C114.5,156 114.5,156 114.5,156 Z" stroke="#FBA617" stroke-width="10" stroke-linecap="square"></path>
        <path d="M105.5,54.5 L428.506195,54.5" id="Line" stroke="#FBA617" stroke-width="10" stroke-linecap="square" sketch:type="MSShapeGroup"></path>
        <path id="Line-decoration-1" d="M428.5,54.5 C424.72,53.45 421.48,52.55 417.7,51.5 C417.7,53.6 417.7,55.4 417.7,57.5 C421.48,56.45 424.72,55.55 428.5,54.5 C428.5,54.5 428.5,54.5 428.5,54.5 Z" stroke="#FBA617" stroke-width="10" stroke-linecap="square"></path>
    </g>
</svg>